<svg xmlns="http://www.w3.org/2000/svg" xmlns:xlink="http://www.w3.org/1999/xlink" width="412" height="400" viewBox="0 0 412 400"><defs><style>.a{clip-path:url(#l);}.b,.j{fill:#334c9e;}.b{font-size:45px;}.b,.c,.g,.i,.j{font-family:NotoSerif-Regular, Noto Serif;}.c{font-size:16px;opacity:0.63;}.d{fill:#f1f4f9;}.e,.h,.l{fill:none;}.e,.f,.h{stroke:#7b84b9;}.f{fill:#fff;}.g,.i,.j{font-size:12px;}.g{opacity:0.6;}.h{stroke-width:1.5px;}.i{opacity:0.84;}.k{stroke:none;}.m{filter:url(#i);}.n{filter:url(#g);}.o{filter:url(#e);}.p{filter:url(#c);}.q{filter:url(#a);}</style><filter id="a" x="27" y="224" width="365" height="71" filterUnits="userSpaceOnUse"><feOffset dx="3" dy="6" input="SourceAlpha"/><feGaussianBlur stdDeviation="5" result="b"/><feFlood flood-opacity="0.161"/><feComposite operator="in" in2="b"/><feComposite in="SourceGraphic"/></filter><filter id="c" x="36.5" y="119.5" width="350" height="69" filterUnits="userSpaceOnUse"><feOffset dx="5" dy="5" input="SourceAlpha"/><feGaussianBlur stdDeviation="2.5" result="d"/><feFlood flood-opacity="0.161"/><feComposite operator="in" in2="d"/><feComposite in="SourceGraphic"/></filter><filter id="e" x="42" y="268" width="335" height="60" filterUnits="userSpaceOnUse"><feOffset dx="3" dy="6" input="SourceAlpha"/><feGaussianBlur stdDeviation="5" result="f"/><feFlood flood-opacity="0.161"/><feComposite operator="in" in2="f"/><feComposite in="SourceGraphic"/></filter><filter id="g" x="42" y="301" width="335" height="60" filterUnits="userSpaceOnUse"><feOffset dx="3" dy="6" input="SourceAlpha"/><feGaussianBlur stdDeviation="5" result="h"/><feFlood flood-opacity="0.161"/><feComposite operator="in" in2="h"/><feComposite in="SourceGraphic"/></filter><filter id="i" x="42" y="334" width="335" height="60" filterUnits="userSpaceOnUse"><feOffset dx="3" dy="6" input="SourceAlpha"/><feGaussianBlur stdDeviation="5" result="j"/><feFlood flood-opacity="0.161"/><feComposite operator="in" in2="j"/><feComposite in="SourceGraphic"/></filter><clipPath id="l"><rect width="412" height="400"/></clipPath></defs><g id="k" class="a"><rect class="d" width="412" height="400"/><text class="b" transform="translate(113 48)"><tspan x="0" y="0">Libreous</tspan></text><g transform="translate(0 9)"><text class="c" transform="translate(160 108)"><tspan x="0" y="0">Цитата дня</tspan></text><g class="q" transform="matrix(1, 0, 0, 1, 0, -9)"><rect class="d" width="335" height="41" rx="8" transform="translate(39 233)"/></g><g transform="translate(-4 -186)"><g transform="translate(56 421)"><line class="e" x2="5.036" y2="7.913" transform="translate(8.992 11.151)"/><g class="f"><circle class="k" cx="6" cy="6" r="6"/><circle class="l" cx="6" cy="6" r="5.5"/></g></g></g><text class="g" transform="translate(100 249)"><tspan x="0" y="0">Например: &quot;Чистый код Р.Мартин&quot;</tspan></text><g transform="translate(20 -191)"><line class="h" y2="16" transform="translate(325.5 427.5)"/><line class="h" y2="16" transform="translate(330.5 427.5)"/><line class="h" y2="16" transform="translate(335.5 427.5)"/><g class="f" transform="translate(323 435)"><circle class="k" cx="2.5" cy="2.5" r="2.5"/><circle class="l" cx="2.5" cy="2.5" r="2"/></g><g class="f" transform="translate(328 430)"><circle class="k" cx="2.5" cy="2.5" r="2.5"/><circle class="l" cx="2.5" cy="2.5" r="2"/></g><g class="f" transform="translate(333 437)"><circle class="k" cx="2.5" cy="2.5" r="2.5"/><circle class="l" cx="2.5" cy="2.5" r="2"/></g></g><g class="p" transform="matrix(1, 0, 0, 1, 0, -9)"><rect class="d" width="335" height="54" rx="11" transform="translate(39 122)"/></g><text class="i" transform="translate(66 130)"><tspan x="0" y="0">&quot;Книга, которая хороша написана, всегда</tspan><tspan x="0" y="17">кажется мне слишком короткой.&quot;</tspan><tspan x="0" y="34">Джейн Остин</tspan></text><g class="o" transform="matrix(1, 0, 0, 1, 0, -9)"><rect class="d" width="305" height="30" rx="8" transform="translate(54 277)"/></g><text class="j" transform="translate(153 288)"><tspan x="0" y="0">Поиск по автору</tspan></text><g class="n" transform="matrix(1, 0, 0, 1, 0, -9)"><rect class="d" width="305" height="30" rx="8" transform="translate(54 310)"/></g><text class="j" transform="translate(153 288)"><tspan x="0" y="0">Поиск по автору</tspan></text><text class="j" transform="translate(126 321)"><tspan x="0" y="0">Поиск по названию книги</tspan></text><g class="m" transform="matrix(1, 0, 0, 1, 0, -9)"><rect class="d" width="305" height="30" rx="8" transform="translate(54 343)"/></g><text class="j" transform="translate(136 354)"><tspan x="0" y="0">Универсальный поиск</tspan></text></g></g></svg>